Coordinates
version=1
nRows=14
nColumns=24
inDegrees=yes

Units are S.I. units (second, meters, Newtons, ...)
Angles are in degrees.

endheader
time	pelvis_tilt	pelvis_list	pelvis_rotation	pelvis_tx	pelvis_ty	pelvis_tz	hip_flexion_r	hip_adduction_r	hip_rotation_r	knee_angle_r	ankle_angle_r	subtalar_angle_r	mtp_angle_r	hip_flexion_l	hip_adduction_l	hip_rotation_l	knee_angle_l	ankle_angle_l	subtalar_angle_l	mtp_angle_l	lumbar_extension	lumbar_bending	lumbar_rotation
      4.29500000	     -7.36140581	      3.93336275	    -11.23420881	     -0.73733385	     -0.04475860	      0.61931384	     -7.94145733	     -1.28272690	      3.57291176	    -13.59471193	     14.12540252	      1.04654458	      6.62579018	     35.55417580	     -1.56454475	    -23.02514506	    -14.30178615	     -2.60262436	     18.56296604	     -5.03143426	      5.43133441	     -2.73155021	     14.74864966
      4.30000000	     -7.42236386	      4.33540339	    -11.39732972	     -0.73007645	     -0.04578939	      0.61962258	     -7.91683581	     -1.79751512	      3.61745356	    -14.29142504	     13.98177611	      1.12688356	      6.68322932	     35.56801700	     -1.22416272	    -23.14660577	    -14.67814767	     -3.37429060	     17.96138404	     -4.03679726	      5.66229109	     -3.20352606	     14.88190190
      4.30500000	     -7.44579022	      4.77187694	    -11.51119114	     -0.72271993	     -0.04674809	      0.61987900	     -7.92122518	     -2.36617673	      3.56601461	    -15.00747094	     13.81247427	      1.34522874	      6.81344242	     35.58051404	     -0.82029262	    -23.14842417	    -15.14675074	     -4.13935743	     17.28242619	     -3.28720578	      5.86946869	     -3.73020916	     14.91568204
      4.31000000	     -7.50428848	      5.22291145	    -11.63155651	     -0.71530198	     -0.04766127	      0.62020849	     -7.88698211	     -2.92899914	      3.68196572	    -15.71828900	     13.50553758	      1.33098683	      6.88865964	     35.68607177	     -0.44889487	    -23.16189686	    -15.78753774	     -4.74342589	     16.72507052	     -3.16850785	      6.13144688	     -4.26768089	     14.98037721
      4.31500000	     -7.48898928	      5.65405269	    -11.64597188	     -0.70798772	     -0.04845240	      0.62020009	     -7.85200462	     -3.53411242	      3.35654866	    -16.57883313	     13.25113953	      1.91517678	      7.20732906	     35.71860695	      0.04946460	    -22.70441547	    -16.31364315	     -5.71380351	     15.53561782	     -2.23047057	      6.26993299	     -4.79486816	     14.93614178
      4.32000000	     -7.52490252	      6.12461843	    -11.77190902	     -0.70058401	     -0.04917780	      0.62047579	     -7.74636283	     -4.14043316	      3.50838953	    -17.43959759	     12.79686022	      2.02639872	      7.35610410	     35.85986441	      0.44347767	    -22.52013852	    -17.05781166	     -6.32982885	     14.71564251	     -2.08971662	      6.50746767	     -5.35000974	     15.01092499
      4.32500000	     -7.52184253	      6.51280867	    -11.73932745	     -0.69325424	     -0.04984537	      0.62035466	     -7.65099686	     -4.71378934	      3.17709176	    -18.39025162	     12.35234552	      2.68457253	      7.78149647	     36.00523415	      0.91965305	    -21.84014302	    -17.83195057	     -7.05223110	     13.36807671	     -1.66101543	      6.64131322	     -5.82884696	     14.88777426
      4.33000000	     -7.52744915	      6.92712810	    -11.73001824	     -0.68583915	     -0.05042330	      0.62033502	     -7.50469333	     -5.30496708	      2.98849869	    -19.40785634	     11.75424383	      3.17180274	      8.19894674	     36.18014806	      1.37788346	    -21.28772625	    -18.69417959	     -7.59435174	     12.24294579	     -1.44042277	      6.81048999	     -6.33656041	     14.81349324
      4.33500000	     -7.53527389	      7.30808527	    -11.67480841	     -0.67840532	     -0.05093534	      0.62024163	     -7.32001171	     -5.86954305	      2.74533873	    -20.50686616	     11.04807194	      3.73786188	      8.68770804	     36.37615373	      1.83586730	    -20.66382444	    -19.62408700	     -7.99507945	     11.15277248	     -1.34725377	      6.96812935	     -6.81206481	     14.67584312
      4.34000000	     -7.54408638	      7.65910666	    -11.58796349	     -0.67093742	     -0.05136798	      0.62008386	     -7.09666835	     -6.41369656	      2.47944873	    -21.68278362	     10.21414968	      4.35764514	      9.25519970	     36.57230646	      2.29085846	    -20.02325008	    -20.58890493	     -8.25597944	     10.14664355	     -1.33110011	      7.11877832	     -7.25680611	     14.50279359
      4.34500000	     -7.55223351	      7.96056979	    -11.54432731	     -0.66354844	     -0.05169310	      0.61995585	     -6.80179110	     -6.91448328	      2.31858277	    -22.96950780	      9.24787117	      5.01817493	      9.80586531	     36.74202421	      2.68434554	    -19.39724450	    -21.54389925	     -8.38682645	      9.23399952	     -1.32795161	      7.25184156	     -7.63841468	     14.40356788
      4.35000000	     -7.55399621	      8.21594544	    -11.38527965	     -0.65609721	     -0.05196389	      0.61966739	     -6.49974816	     -7.38535304	      1.97034831	    -24.31631119	      8.14723237	      5.79802060	     10.51984768	     36.88560223	      3.10701066	    -18.77847216	    -22.49676289	     -8.40050858	      8.48260925	     -1.27590002	      7.35556517	     -7.98712075	     14.15178791
      4.35500000	     -7.54615552	      8.44449210	    -11.23384460	     -0.64868533	     -0.05211558	      0.61939051	     -6.15061322	     -7.83644684	      1.68609299	    -25.73960564	      6.89064275	      6.57019563	     11.31412379	     36.96483437	      3.50940614	    -18.23387886	    -23.37548021	     -8.32654007	      7.84827810	     -1.16217820	      7.43866606	     -8.30795586	     13.91510718
      4.36000000	     -7.53523569	      8.64775765	    -11.05501906	     -0.64130827	     -0.05216517	      0.61909083	     -5.75631863	     -8.26940978	      1.39372603	    -27.22966836	      5.48533426	      7.34852439	     12.16778214	     36.98405288	      3.90578037	    -17.76118069	    -24.17111844	     -8.18571815	      7.35059871	     -0.95100907	      7.50315794	     -8.60596719	     13.65183722
